Coordinates
version=1
nRows=5
nColumns=46
inDegrees=yes

Units are S.I. units (second, meters, Newtons, ...)
Angles are in degrees.

endheader
time	pelvis_tilt	pelvis_list	pelvis_rotation	pelvis_tx	pelvis_ty	pelvis_tz	bb_angle	bb_tx	bb_ty	bb_tz	hip_flexion_r	hip_adduction_r	hip_rotation_r	knee_angle_r	knee_angle_r_beta	ankle_angle_r	subtalar_angle_r	mtp_angle_r	crank_angle_r	hip_flexion_l	hip_adduction_l	hip_rotation_l	knee_angle_l	knee_angle_l_beta	ankle_angle_l	subtalar_angle_l	mtp_angle_l	crank_angle_l	lumbar_extension	lumbar_bending	lumbar_rotation	arm_flex_r	arm_add_r	arm_rot_r	elbow_flex_r	pro_sup_r	wrist_flex_r	wrist_dev_r	arm_flex_l	arm_add_l	arm_rot_l	elbow_flex_l	pro_sup_l	wrist_flex_l	wrist_dev_l
      7.50000000	    -34.58934841	      2.12551790	    -11.39571391	      0.27528600	      1.01852429	     -0.22819912	      0.00000000	      0.50000000	      0.00000000	      0.25000000	    100.91714487	      1.88027357	      6.17476158	    107.19618363	      1.87092635	      2.69502148	      1.01520699	      0.00000000	      0.00000000	     38.21832307	     -8.25188254	     -9.83895293	     36.40245804	      0.63534275	    -14.31003421	     -8.84952960	      0.00000000	      0.00000000	    -30.50745292	     -3.88999915	     12.88730431	     60.58516493	    -37.18492003	     64.89357489	     72.66984545	     59.36548805	      0.00000000	      0.00000000	     51.27269834	    -16.78098746	     40.24591860	     56.23473629	     51.03886765	      0.00000000	      0.00000000
      7.50500000	    -34.71595445	      2.43234104	    -11.44789380	      0.27522434	      1.02083054	     -0.22793951	      0.00000000	      0.50000000	      0.00000000	      0.25000000	    100.11536240	      2.02267241	      6.23507812	    105.05341607	      1.83352800	      3.64962807	      1.08488498	      0.00000000	      0.00000000	     39.47513962	     -8.26923237	     -9.87543199	     38.98371021	      0.68039410	    -15.85908408	     -9.57868062	      0.00000000	      0.00000000	    -30.79096625	     -4.28820851	     12.87009728	     60.50429804	    -37.24482347	     64.52794347	     72.81352979	     59.29850836	      0.00000000	      0.00000000	     51.67044506	    -16.73233495	     40.25060259	     56.25405721	     51.04760279	      0.00000000	      0.00000000
      7.51000000	    -34.88614619	      2.56923408	    -11.20023486	      0.27491584	      1.02294655	     -0.22768487	      0.00000000	      0.50000000	      0.00000000	      0.25000000	     99.18394440	      1.95919233	      6.27467124	    102.80989569	      1.79437118	      4.53087403	      1.32594012	      0.00000000	      0.00000000	     40.90295408	     -8.20905140	     -9.22784167	     41.58708679	      0.72583159	    -17.35357865	    -10.33880875	      0.00000000	      0.00000000	    -30.92304599	     -4.41697622	     12.79675975	     60.11969934	    -37.37901700	     63.83853235	     73.08754268	     59.18312539	      0.00000000	      0.00000000	     51.92021451	    -16.60199684	     40.51426552	     56.18100171	     51.07864258	      0.00000000	      0.00000000
      7.51500000	    -34.64543710	      2.98367457	    -10.74134211	      0.27469938	      1.02497574	     -0.22689125	      0.00000000	      0.50000000	      0.00000000	      0.25000000	     97.91330637	      1.71563071	      6.65613072	    100.72382625	      1.75796240	      5.32637574	      1.27591907	      0.00000000	      0.00000000	     42.05323892	     -7.88045103	     -8.86376279	     44.30764018	      0.77331420	    -18.86467760	    -10.20609914	      0.00000000	      0.00000000	    -31.49419577	     -4.92318766	     12.25461648	     60.02758928	    -37.39905245	     63.51967104	     73.13263030	     59.12992109	      0.00000000	      0.00000000	     52.52510033	    -16.55282525	     40.53070795	     56.19752895	     51.08109424	      0.00000000	      0.00000000
      7.52000000	    -34.97283372	      2.83793035	    -10.25025276	      0.27408861	      1.02656404	     -0.22652117	      0.00000000	      0.50000000	      0.00000000	      0.25000000	     96.81629491	      1.46877377	      6.43383182	     98.23849554	      1.71458520	      6.36455590	      1.56334016	      0.00000000	      0.00000000	     43.92583840	     -7.97591117	     -7.80779766	     47.19978780	      0.82379170	    -20.48826184	    -10.89556403	      0.00000000	      0.00000000	    -31.49932696	     -4.64899784	     12.07229491	     59.50770319	    -37.24340193	     62.23748338	     73.39808095	     58.92700178	      0.00000000	      0.00000000	     53.04838549	    -16.70889794	     41.29592811	     56.03660468	     51.15933587	      0.00000000	      0.00000000
